<?xml version="1.0" encoding="utf-8"?>
<!-- Generator: Adobe Illustrator 18.0.0, SVG Export Plug-In . SVG Version: 6.00 Build 0)  -->
<!DOCTYPE svg PUBLIC "-//W3C//DTD SVG 1.1//EN" "http://www.w3.org/Graphics/SVG/1.1/DTD/svg11.dtd">
<svg version="1.1" id="Layer_1" xmlns="http://www.w3.org/2000/svg" xmlns:xlink="http://www.w3.org/1999/xlink" x="0px" y="0px"
	 viewBox="0 0 61.5 62" enable-background="new 0 0 61.5 62" xml:space="preserve">
<g>
	<path d="M20.5,14.9c-0.1-0.1-0.1-0.1-0.2-0.2c-0.5-0.5-0.7-0.7-0.7-1.1c0-0.5,0.2-0.6,0.7-1.1c0.2-0.2,0.5-0.5,0.7-0.7
		c0.3-0.4,0.3-0.9-0.1-1.2c-0.4-0.3-0.9-0.3-1.2,0.1c-0.2,0.2-0.4,0.4-0.6,0.6c-0.6,0.6-1.2,1.2-1.2,2.4c0,1.2,0.6,1.8,1.2,2.4
		c0.1,0.1,0.1,0.1,0.2,0.2c0.6,0.5,1,0.9,1,1.8c0,1-0.5,1.6-1.1,2.2c-0.1,0.1-0.1,0.1-0.2,0.2c-0.3,0.4-0.3,0.9,0.1,1.2
		c0.2,0.1,0.4,0.2,0.6,0.2c0.2,0,0.5-0.1,0.7-0.3c0.1-0.1,0.1-0.1,0.2-0.2c0.7-0.7,1.6-1.7,1.6-3.4C22.1,16.3,21.2,15.5,20.5,14.9
		L20.5,14.9z M20.5,14.9" fill="#DCCA87"/>
	<path d="M32.7,11c-0.1-0.1-0.1-0.1-0.2-0.2c-0.5-0.5-0.7-0.7-0.7-1.1c0-0.5,0.2-0.6,0.7-1.1c0.2-0.2,0.5-0.5,0.7-0.7
		c0.3-0.4,0.3-0.9-0.1-1.2c-0.4-0.3-0.9-0.3-1.2,0.1c-0.2,0.2-0.4,0.4-0.6,0.6c-0.6,0.6-1.2,1.2-1.2,2.4c0,1.2,0.6,1.8,1.2,2.4
		c0.1,0.1,0.1,0.1,0.2,0.2c0.6,0.5,1,0.9,1,1.8c0,1-0.5,1.6-1.1,2.2c-0.1,0.1-0.1,0.1-0.2,0.2c-0.3,0.4-0.3,0.9,0.1,1.2
		c0.2,0.1,0.4,0.2,0.6,0.2c0.2,0,0.5-0.1,0.7-0.3c0.1-0.1,0.1-0.1,0.2-0.2c0.7-0.7,1.6-1.7,1.6-3.4C34.3,12.4,33.4,11.6,32.7,11
		L32.7,11z M32.7,11" fill="#DCCA87"/>
	<path d="M45,14.9c-0.1-0.1-0.1-0.1-0.2-0.2c-0.5-0.5-0.7-0.7-0.7-1.1c0-0.5,0.2-0.6,0.7-1.1c0.2-0.2,0.5-0.5,0.7-0.7
		c0.3-0.4,0.3-0.9-0.1-1.2c-0.4-0.3-0.9-0.3-1.2,0.1c-0.2,0.2-0.4,0.4-0.6,0.6c-0.6,0.6-1.2,1.2-1.2,2.4c0,1.2,0.6,1.8,1.2,2.4
		c0.1,0.1,0.1,0.1,0.2,0.2c0.6,0.5,1,0.9,1,1.8c0,1-0.5,1.6-1.1,2.2c-0.1,0.1-0.1,0.1-0.2,0.2c-0.3,0.4-0.3,0.9,0.1,1.2
		c0.2,0.1,0.4,0.2,0.6,0.2c0.2,0,0.5-0.1,0.7-0.3c0.1-0.1,0.1-0.1,0.2-0.2c0.7-0.7,1.6-1.7,1.6-3.4C46.5,16.3,45.6,15.5,45,14.9
		L45,14.9z M45,14.9" fill="#DCCA87"/>
	<path d="M60.8,51.3H3.6c-0.5,0-0.9,0.4-0.9,0.9v2.1c0,2.3,1.9,4.2,4.2,4.2h50.6c2.3,0,4.2-1.9,4.2-4.2v-2.1
		C61.7,51.7,61.3,51.3,60.8,51.3L60.8,51.3z M59.9,54.3c0,1.4-1.1,2.5-2.5,2.5H6.9c-1.4,0-2.5-1.1-2.5-2.5v-1.2h55.5V54.3z
		 M59.9,54.3" fill="#DCCA87"/>
	<path d="M48.1,32.5c-3.5-3.4-8-5.5-12.7-6.2l1.7-1.7c0.5-0.5,0.7-1.3,0.4-2c-0.3-0.7-0.9-1.1-1.7-1.1h-7.2c-0.7,0-1.4,0.4-1.7,1.1
		c-0.3,0.7-0.1,1.4,0.4,2l1.7,1.7c-4.8,0.7-9.2,2.8-12.8,6.2c-4.3,4.1-6.8,9.7-7,15.6c0,0.5,0.4,0.9,0.8,0.9c0,0,0,0,0,0
		c0.5,0,0.9-0.4,0.9-0.8c0.2-5.5,2.5-10.6,6.5-14.4c3.7-3.6,8.5-5.6,13.5-5.9c0.1,0,0.2,0,0.3,0c0.1,0,0.2,0,0.3,0
		c0.1,0,0.1,0,0.2,0c0.1,0,0.3,0,0.4,0c0.1,0,0.3,0,0.4,0c0.1,0,0.1,0,0.2,0c0.1,0,0.2,0,0.3,0c0.1,0,0.2,0,0.3,0
		c5.1,0.3,9.8,2.3,13.5,5.9c4,3.8,6.3,8.9,6.5,14.4c0,0.5,0.4,0.9,0.9,0.8c0.5,0,0.9-0.4,0.8-0.9C54.9,42.1,52.4,36.6,48.1,32.5
		L48.1,32.5z M33.1,26.1c0,0-0.1,0-0.1,0c-0.1,0-0.2,0-0.3,0c-0.2,0-0.3,0-0.5,0c0,0,0,0,0,0c0,0,0,0,0,0c-0.2,0-0.3,0-0.5,0
		c-0.1,0-0.2,0-0.3,0c0,0-0.1,0-0.1,0l-2.7-2.7c0,0,0,0,0,0c0,0,0,0,0,0h7.2c0,0,0,0,0,0c0,0,0,0,0,0L33.1,26.1z M33.1,26.1" fill="#DCCA87"/>
</g>
</svg>
