<?xml version="1.0" encoding="UTF-8" standalone="no"?> <svg xmlns="http://www.w3.org/2000/svg" width="48" height="48" viewBox="0 0 48 48">
  <g>
    <path d="M34,45H14a1,1,0,0,1-1-1V40a1,1,0,0,1,1-1H34a1,1,0,0,1,1,1v4A1,1,0,0,1,34,45ZM15,43H33V41H15Z" fill="#8A6E2F"/>
    <path d="M34,41H14a1,1,0,0,1-.995-.9L11.554,26.31A9,9,0,0,1,15,9c.167,0,.339.006.515.018a8.991,8.991,0,0,1,16.97,0C32.661,9.006,32.833,9,33,9a9,9,0,0,1,3.446,17.31L34.995,40.1A1,1,0,0,1,34,41ZM14.9,39H33.1l1.422-13.515a1,1,0,0,1,.68-.844,6.989,6.989,0,0,0-3.283-13.548,1,1,0,0,1-1.126-.752,6.99,6.99,0,0,0-13.586,0,1,1,0,0,1-1.126.752A6.993,6.993,0,0,0,12.8,24.641a1,1,0,0,1,.68.844Z" fill="#8A6E2F"/>
    <path d="M27.877,12.051a1,1,0,0,1-.971-.764A2.983,2.983,0,0,0,24,9a1,1,0,0,1,0-2,4.98,4.98,0,0,1,4.85,3.814,1,1,0,0,1-.736,1.208A.961.961,0,0,1,27.877,12.051Z" fill="#8A6E2F"/>
    <path d="M11,19a1,1,0,0,1-1-1,5.006,5.006,0,0,1,5-5,5.072,5.072,0,0,1,.773.069,1,1,0,0,1-.309,1.976A3.089,3.089,0,0,0,15,15a3,3,0,0,0-3,3A1,1,0,0,1,11,19Z" fill="#8A6E2F"/>
    <path d="M24,41a1,1,0,0,1-1-1V30a1,1,0,0,1,2,0V40A1,1,0,0,1,24,41Z" fill="#8A6E2F"/>
    <path d="M29,41A.875.875,0,0,1,28.9,41a1,1,0,0,1-.895-1.095l1-10A1,1,0,0,1,31,30.1l-1,10A1,1,0,0,1,29,41Z" fill="#8A6E2F"/>
    <path d="M19,41a1,1,0,0,1-.994-.9l-1-10A1,1,0,0,1,19,29.9l1,10A1,1,0,0,1,19.1,41,.865.865,0,0,1,19,41Z" fill="#8A6E2F"/>
  </g>
</svg>
