<svg width="79" height="80" viewBox="0 0 79 80" fill="none" xmlns="http://www.w3.org/2000/svg">
<path d="M12.1935 58.8299C12.0217 58.6548 12.1935 58.8299 12.1935 58.8299C12.0217 58.6548 11.85 58.4796 11.85 58.3044C11.6782 57.9541 11.5065 57.779 11.5065 57.779C11.5065 57.2535 11.6782 56.728 11.6782 56.2025C12.1935 56.2025 13.0521 56.0273 13.3956 54.9763C13.5674 54.4508 13.5674 53.7501 13.5674 53.0495C13.5674 52.6992 13.5674 52.3488 13.3956 52.1737C13.3956 51.8233 13.3956 51.6482 13.3956 51.473C12.8804 51.8233 10.9913 53.2246 10.6478 54.1005C10.4761 54.626 10.4761 54.9763 10.6478 55.3266C10.8195 55.677 11.163 55.8521 11.3348 56.0273C11.163 56.2025 11.163 56.5528 10.9913 56.9031C10.9913 56.9031 10.8195 56.728 10.6478 56.3776C10.4761 56.0273 10.3043 55.677 10.1326 55.3266C9.96086 54.9763 9.78912 54.626 9.61738 54.2756C9.61738 54.1005 9.44563 53.9253 9.44563 53.9253V53.7501L8.93041 52.524C8.93041 52.1737 9.27389 51.473 9.44563 50.9475C9.96085 50.9475 10.8195 50.9475 11.3348 50.0717C11.5065 49.7213 11.6782 49.0207 11.6782 48.32C11.6782 47.9697 11.6782 47.6194 11.6782 47.269C11.6782 46.9187 11.6782 46.7435 11.6782 46.5684C11.163 46.7435 9.10215 47.7945 8.58694 48.6703C8.4152 48.8455 8.41521 49.0207 8.41521 49.1959C8.24347 49.8965 8.75867 50.422 8.93041 50.5972C8.75867 50.7723 8.58695 51.1227 8.41521 51.2978C8.41521 51.2978 8.4152 51.1227 8.24346 50.9475C8.24346 50.7723 8.07171 50.5972 8.07171 50.2468C7.89998 49.7213 7.72824 49.1959 7.72824 49.1959C7.72824 49.1959 7.72826 49.0207 7.55652 48.8455C7.55652 48.6703 7.38477 48.4952 7.38477 48.4952L7.0413 47.269C7.21304 46.9187 7.5565 46.218 7.72824 45.8677C8.07172 46.0429 9.10215 46.0429 9.7891 45.167C10.1326 44.8167 10.3043 44.116 10.4761 43.4154C10.6478 42.7147 10.8195 42.1892 10.8195 41.8389C10.3043 42.0141 8.07172 42.7147 7.38477 43.4154C6.69782 44.2912 7.21303 45.167 7.38477 45.5174C7.21303 45.6925 7.04129 45.8677 6.86955 46.218C6.86955 46.218 6.86956 46.0429 6.69783 45.6925C6.69783 45.3422 6.52608 44.9919 6.52608 44.4664C6.52608 44.116 6.35433 43.5906 6.35433 43.2402C6.35433 42.8899 6.35433 42.7147 6.35433 42.7147C6.35433 42.7147 6.35433 42.3644 6.35433 42.0141C6.35433 41.8389 6.35433 41.6637 6.35433 41.6637C6.35433 41.4886 6.35433 41.4886 6.35433 41.4886C6.52607 41.1382 7.04128 40.6128 7.21302 40.2624C7.5565 40.4376 8.58695 40.6127 9.27391 39.9121C9.61738 39.5617 9.96086 39.0363 10.1326 38.3356C10.4761 37.6349 10.6478 37.1094 10.6478 36.7591C9.96084 36.7591 7.72825 37.1094 7.0413 37.8101C6.86956 37.9853 6.69783 38.1604 6.69783 38.3356C6.35435 39.0363 6.69781 39.5617 6.86955 39.9121C6.69781 40.0872 6.52608 40.2624 6.1826 40.4376C6.1826 40.4376 6.1826 40.2624 6.1826 40.0872C6.1826 39.9121 6.1826 39.5618 6.1826 39.3866C6.1826 38.8611 6.1826 38.3356 6.1826 38.3356V37.4598C6.1826 37.4598 6.1826 37.1094 6.1826 36.7591C6.1826 36.4088 6.1826 36.0584 6.1826 36.0584C6.35434 35.7081 6.86954 35.1826 7.21302 35.0075C7.5565 35.1826 8.41521 35.7081 9.27391 35.0075C9.61738 34.6571 10.1326 34.1316 10.4761 33.6061C10.8195 33.0806 11.163 32.5551 11.163 32.2048C10.4761 32.2048 8.24346 32.2048 7.38477 32.7303C6.86955 33.0806 6.69783 33.431 6.69783 33.7813C6.69783 34.1316 6.69781 34.482 6.86955 34.6571C6.69781 34.8323 6.35434 35.0075 6.1826 35.1826C6.1826 35.1826 6.1826 35.0075 6.1826 34.6571C6.1826 34.3068 6.35433 33.9565 6.35433 33.431C6.35433 32.9055 6.52608 32.5551 6.52608 32.2048C6.52608 31.8545 6.69783 31.6793 6.69783 31.6793C6.69783 31.6793 6.69783 31.6793 6.69783 31.5042C6.69783 31.329 6.69783 31.1538 6.69783 31.1538C6.69783 30.8035 6.86955 30.4531 6.86955 30.4531C7.21303 30.1028 7.72824 29.7525 8.07171 29.5773C8.41519 29.9277 9.10217 30.4532 10.1326 29.9277C10.3043 29.7525 10.6478 29.5773 10.8195 29.4022C10.9913 29.227 11.3348 28.8767 11.5065 28.7015C12.0217 28.176 12.3652 27.6505 12.5369 27.4753C12.1935 27.4753 11.5065 27.3002 10.8195 27.125C10.1326 27.125 9.2739 27.125 8.75869 27.3002C8.58695 27.4753 8.4152 27.4753 8.24346 27.6505C8.07172 27.8257 7.89999 28.176 7.89999 28.5263C7.89999 28.8767 7.89999 29.0518 7.89999 29.227C7.72825 29.4022 7.38478 29.4022 7.0413 29.5773C7.0413 29.5773 7.21303 29.0518 7.38477 28.5263C7.38477 28.3512 7.55652 28.0008 7.55652 27.8257C7.55652 27.6505 7.72824 27.4753 7.72824 27.4753L8.07171 26.5995C8.07171 26.5995 8.07171 26.5995 8.07171 26.4244C8.07171 26.4244 8.07171 26.4244 8.07171 26.2492C8.07171 26.2492 8.07172 26.074 8.24346 25.8989C8.4152 25.5485 8.41521 25.3734 8.41521 25.3734C8.75869 25.023 9.44562 24.8479 9.7891 24.6727C10.1326 25.023 10.8196 25.7237 11.85 25.3734C12.7087 25.023 14.0826 23.6217 14.5978 23.2714C14.0826 23.0962 11.85 22.2204 10.8195 22.5707C10.3043 22.7459 9.96084 23.0962 9.7891 23.4465C9.61736 23.7969 9.61738 24.1472 9.61738 24.3224C9.44564 24.3224 9.10216 24.4975 8.75869 24.4975C8.75869 24.4975 8.93041 24.3224 8.93041 23.972C9.10215 23.6217 9.27389 23.2714 9.44563 22.921C9.61737 22.5707 9.78911 22.2204 9.96085 21.8701C10.1326 21.5197 10.1326 21.3446 10.1326 21.3446L10.8195 20.2936C11.163 20.1184 11.85 19.9432 12.3652 19.7681C12.5369 20.1184 13.2239 20.8191 14.2543 20.8191C14.7695 20.8191 15.2847 20.4687 15.8 20.1184C16.1434 19.9432 16.3152 19.7681 16.6587 19.5929C16.8304 19.4177 17.1739 19.2426 17.1739 19.2426C16.6587 18.8922 14.5978 17.8412 13.5674 17.8412C13.3956 17.8412 13.2239 17.8412 13.0522 18.0164C12.3652 18.3667 12.1935 19.0674 12.1935 19.2426C12.0217 19.2426 11.6782 19.2426 11.3348 19.2426C11.3348 19.2426 11.3348 19.0674 11.5065 18.8922C11.6782 18.7171 11.6782 18.5419 11.85 18.3668C12.1935 18.0164 12.3652 17.4909 12.3652 17.4909C12.3652 17.4909 12.5369 17.3158 12.5369 17.1406C12.7087 16.9654 12.7087 16.7903 12.7087 16.7903L13.0522 16.2648L13.5674 15.7393C13.9109 15.5641 14.5978 15.5641 15.113 15.5641C15.2848 15.9144 15.8 16.7903 16.8304 16.7903C17.3456 16.7903 18.0326 16.6151 18.5478 16.2648C19.2347 16.0896 19.75 15.7393 19.9217 15.5641C19.4065 15.2138 17.6891 13.8124 16.6587 13.8124C16.1434 13.8124 15.8 13.9876 15.4565 14.3379C15.2847 14.6883 15.113 14.8634 15.113 15.2138C14.9413 15.2138 14.5978 15.2138 14.2543 15.2138C14.2543 15.2138 14.4261 15.0386 14.5978 14.8634C14.7695 14.6883 15.113 14.3379 15.4565 13.9876C15.6282 13.8125 15.8 13.6373 15.9717 13.4621C16.1434 13.287 16.3152 13.1118 16.3152 13.1118C16.4869 12.9366 16.6587 12.7615 16.6587 12.7615C16.6587 12.7615 16.8304 12.5863 17.1739 12.236C17.3456 12.0608 17.6891 11.8856 17.6891 11.8856C18.2043 11.8856 18.7195 11.8856 19.2347 11.8856C19.2347 12.4111 19.5782 13.287 20.6086 13.4621C20.7804 13.4621 21.1239 13.4621 21.4673 13.4621C21.8108 13.4621 22.1543 13.287 22.326 13.287C22.6695 13.287 23.013 13.1118 23.3565 13.1118C23.7 13.1118 23.8717 12.9366 24.0434 12.9366C23.6999 12.4111 21.9826 10.8346 21.1239 10.6595C20.9521 10.6595 20.7804 10.6595 20.4369 10.6595C20.2652 10.6595 20.0934 10.6595 19.9217 10.8346C19.75 10.8346 19.75 11.0098 19.5782 11.185C19.4065 11.3601 19.2347 11.5353 19.2347 11.7105C19.063 11.7105 18.7195 11.5353 18.376 11.5353C18.376 11.5353 18.7195 11.185 19.2347 10.8346C19.5782 10.4843 20.0934 10.134 20.0934 10.134L20.7804 9.60848C20.7804 9.60848 20.7804 9.60847 20.9521 9.43331C20.9521 9.43331 21.1239 9.43331 21.1239 9.25815C21.4673 9.08298 21.6391 8.90782 21.6391 8.90782C21.9826 8.90782 22.6695 9.08298 23.1847 9.08298C23.1847 9.60848 23.3565 10.4843 24.3869 10.8346C24.9021 11.0098 25.5891 11.0098 26.276 11.0098C26.6195 11.0098 26.963 11.0098 27.1347 10.8346C27.4782 10.8346 27.6499 10.8346 27.8217 10.8346C27.4782 10.3091 26.1043 8.38232 25.2456 8.03199C24.7304 7.85683 24.3869 7.85683 24.0434 8.03199C23.6999 8.20716 23.5282 8.55749 23.3565 8.73266C23.1847 8.55749 22.8413 8.55748 22.4978 8.38232C22.4978 8.38232 22.6695 8.20716 23.013 8.03199C23.3565 7.85683 23.6999 7.68166 24.0434 7.50649C24.2152 7.33133 26.1043 6.4555 27.4782 5.57968C27.8217 5.93001 28.5086 6.45551 29.3673 6.10518C30.226 5.75485 31.5999 3.82802 31.9434 3.30252C31.4282 3.12736 29.0239 2.77703 28.1652 3.12736C26.963 3.65285 27.1347 4.70384 27.1347 5.05417C26.4478 5.4045 25.7608 5.57967 25.4173 5.75484C25.0739 5.93 23.3565 6.4555 23.3565 6.4555C23.3565 6.10517 23.5282 5.75484 23.5282 5.57968C23.6999 5.57968 24.0434 5.57968 24.3869 5.40451C24.7304 5.22935 25.0738 4.87902 25.2456 4.35352C25.4173 3.82803 25.4173 2.95219 25.4173 2.25153C25.4173 1.55087 25.2456 0.675043 25.2456 0.499878C25.0738 0.675043 24.9021 0.850214 24.5586 1.02538C24.2152 1.20054 24.0434 1.55088 23.6999 1.72604C23.013 2.25154 22.4978 2.9522 22.326 3.4777C21.9826 4.52869 22.6695 5.22935 23.013 5.40451C23.013 5.57968 22.8412 5.93001 22.6695 6.10518C22.4978 6.45551 22.4978 6.63066 22.326 6.80583C22.326 6.80583 22.1543 6.80584 21.9826 6.981C21.8108 7.15617 21.4674 7.33133 21.2956 7.50649C20.7804 7.85682 20.2652 8.20716 20.2652 8.20716C20.2652 8.20716 20.2652 8.20715 20.0934 8.38232C19.9217 8.38232 19.9217 8.55749 19.75 8.73266C19.4065 8.90782 19.2347 9.08298 19.2347 9.08298L18.8913 9.25815C18.8913 9.08298 18.8913 8.90782 18.8913 8.73266C18.8913 8.55749 18.8913 8.55748 18.8913 8.38232C19.063 8.38232 19.4065 8.20716 19.75 8.03199C20.0934 7.85683 20.4369 7.5065 20.4369 6.981C20.6087 5.93001 19.9217 3.65285 19.75 3.12736C19.5782 3.30252 19.4065 3.47769 19.2347 3.65286C19.063 4.00319 18.7195 4.17836 18.376 4.52869C17.8608 5.22935 17.3456 5.93001 17.3456 6.4555V6.63066C17.3456 7.68166 18.0326 8.03199 18.376 8.20716C18.2043 8.73265 18.2043 9.43332 18.0326 9.78365C18.0326 9.78365 17.8608 9.95881 17.6891 10.134C17.5174 10.3091 17.1739 10.6595 16.8304 10.8346C16.4869 11.0098 16.3152 11.3601 15.9717 11.5353C15.8 11.7105 15.6282 11.8856 15.6282 11.8856C15.6282 11.8856 15.2847 12.236 14.9413 12.4111C14.7695 12.5863 14.5978 12.7615 14.5978 12.7615C14.4261 12.9366 14.4261 12.9366 14.4261 12.9366C14.4261 12.5863 14.2543 12.236 14.2543 12.0608C14.4261 12.0608 14.7695 11.8856 15.113 11.5353C15.4565 11.3601 15.6282 10.8346 15.6282 10.3091C15.6282 9.25814 14.5978 7.15616 14.4261 6.63066C14.2543 6.981 13.7391 7.50649 13.3956 8.38232C13.0521 9.08298 12.7087 9.95881 12.7087 10.4843C12.7087 11.7105 13.5674 12.0608 14.0826 12.0608C14.0826 12.5863 14.0826 13.2869 13.9108 13.6373C13.9108 13.6373 13.7391 13.8125 13.5674 13.9876C13.3956 14.1628 13.2239 14.3379 13.0522 14.6883C12.8804 14.8634 12.7087 15.2138 12.5369 15.3889C12.3652 15.5641 12.3652 15.7393 12.3652 15.7393C12.3652 15.7393 12.1935 16.0896 11.85 16.2648C11.6782 16.4399 11.6782 16.6151 11.5065 16.6151C11.5065 16.7903 11.3348 16.7903 11.3348 16.7903L11.163 17.1406C11.163 16.9654 10.9913 16.7903 10.9913 16.6151C10.9913 16.4399 10.9913 16.4399 10.8195 16.2648C10.9913 16.0896 11.3348 15.9144 11.5065 15.7393C11.6782 15.3889 11.85 15.0386 11.85 14.5131C11.6782 13.4621 10.4761 11.5353 10.1326 11.0098C9.96086 11.3601 9.61738 12.0608 9.27391 12.7615C8.93043 13.6373 8.75867 14.3379 8.93041 15.0386V15.2138C9.10215 16.2648 9.96086 16.4399 10.4761 16.4399C10.4761 16.9654 10.6478 17.6661 10.6478 18.0164C10.6478 18.0164 10.3043 18.7171 9.7891 19.4177C9.44562 20.1184 8.93041 20.8191 8.93041 20.8191C8.93041 20.8191 8.93042 20.9942 8.75869 20.9942C8.75869 21.1694 8.58695 21.3446 8.41521 21.5197C8.24347 21.8701 8.07171 22.2204 8.07171 22.2204C7.89998 21.8701 7.72824 21.6949 7.72824 21.3446C7.89998 21.1694 8.24347 20.9942 8.41521 20.6439C8.58695 20.2936 8.75867 19.9432 8.58694 19.2426C8.24346 18.1916 6.69782 16.6151 6.1826 16.0896C6.1826 16.2648 6.01087 16.6151 5.83913 16.7903C5.66739 17.1406 5.66737 17.4909 5.49563 18.0164C5.32389 18.8922 5.32389 19.7681 5.49563 20.2936C5.83911 21.3446 6.86954 21.5197 7.21302 21.5197C7.38476 22.0452 7.55652 22.7459 7.55652 23.0962C7.55652 23.0962 7.55651 23.2714 7.38477 23.4465C7.21303 23.6217 7.21304 23.972 7.0413 24.3224C6.86956 24.8479 6.52608 25.5485 6.52608 25.5485C6.52608 25.5485 6.52608 25.5485 6.52608 25.7237C6.52608 25.8989 6.35433 26.074 6.35433 26.2492C6.18259 26.5995 6.1826 26.9498 6.1826 26.9498L6.01086 27.3002C5.83912 27.125 5.83912 26.9498 5.66738 26.9498C5.66738 26.7747 5.49563 26.7747 5.49563 26.5995C5.66737 26.4244 5.83912 26.2492 6.01086 25.7237C6.18259 25.3734 6.18259 24.8479 6.01086 24.3224C5.49564 23.4465 3.77827 21.8701 3.26305 21.5197C3.09131 22.2204 2.74784 24.8479 3.26305 25.7237C3.26305 25.7237 3.26304 25.8989 3.43477 25.8989C3.94999 26.7747 4.80869 26.7747 5.32391 26.5995C5.49565 26.9498 5.83913 27.6505 5.83913 28.176C5.83913 28.176 5.83912 28.3512 5.66738 28.7015C5.66738 29.0518 5.49563 29.4022 5.49563 29.7525C5.32389 30.1028 5.32391 30.4532 5.32391 30.8035C5.32391 31.1538 5.15216 31.329 5.15216 31.329C5.15216 31.329 5.15218 31.6793 4.98044 32.2048C4.8087 32.5551 4.80869 33.0806 4.80869 33.0806C4.63695 32.9055 4.29348 32.5551 4.12175 32.38C4.29348 32.2048 4.46522 31.8545 4.46522 31.5042C4.46522 31.1538 4.46522 30.6283 4.12175 30.1028C3.60653 29.227 1.54566 28.176 1.03044 27.8257C1.03044 28.176 1.03044 29.0518 1.03044 29.9277C1.20218 30.8035 1.37391 31.6793 1.71739 32.0296C2.40434 32.9055 3.26303 32.7303 3.77825 32.5551C4.12172 32.9055 4.4652 33.6061 4.63694 33.9565C4.63694 33.9565 4.63694 34.1316 4.63694 34.3068C4.63694 34.482 4.63694 34.8323 4.63694 35.1826C4.63694 35.533 4.63694 35.8833 4.63694 36.0584C4.63694 36.2336 4.63694 36.4088 4.63694 36.4088V37.8101V38.1604C4.4652 37.9853 4.29347 37.9853 4.29347 37.8101C4.12173 37.8101 4.12173 37.6349 3.95 37.6349C4.12173 37.4598 4.12175 37.1094 4.12175 36.7591C4.12175 36.4088 3.95 35.8833 3.60652 35.5329C2.91957 34.8323 0.686965 33.9565 0.171749 33.7813C0.171749 34.1316 0.343483 35.0074 0.515221 35.7081C0.68696 36.5839 1.03044 37.2846 1.37391 37.8101C1.37391 37.8101 1.37393 37.8101 1.54566 37.9853C2.40436 38.6859 3.0913 38.3356 3.43477 38.1604C3.77825 38.5108 4.29348 39.0363 4.46522 39.3866C4.46522 39.3866 4.46522 39.5617 4.46522 39.9121C4.46522 40.2624 4.46522 40.6127 4.46522 40.9631C4.46522 41.3134 4.4652 41.6637 4.63694 42.0141C4.63694 42.3644 4.63694 42.5396 4.63694 42.5396C4.63694 42.5396 4.63695 43.0651 4.80869 43.4154C4.80869 43.7657 4.98044 44.2912 4.98044 44.2912C4.63696 44.116 4.46522 43.9409 4.12175 43.9409C4.29348 43.5906 4.46522 42.5396 3.60652 41.8389C2.74783 41.1382 0.515216 40.7879 0 40.7879C0.171739 41.1382 0.343493 41.8389 0.686971 42.7147C1.03045 43.4154 1.54566 44.2912 1.88914 44.6416C2.74783 45.3422 3.60652 44.8167 3.95 44.4664C4.29347 44.8167 4.80868 45.167 5.15216 45.5174C5.15216 45.5174 5.32389 46.218 5.49563 46.7435C5.49563 47.0939 5.66738 47.4442 5.66738 47.6194C5.66738 47.7945 5.83913 47.9697 5.83913 47.9697C5.83913 47.9697 6.01086 48.32 6.01086 48.6703C6.01086 48.8455 6.1826 49.0207 6.1826 49.1959C6.1826 49.371 6.1826 49.371 6.1826 49.371L6.35433 49.7213C6.18259 49.7213 6.01087 49.5462 5.83913 49.5462C5.66739 49.5462 5.66737 49.371 5.49563 49.371C5.49563 49.1958 5.49563 48.8455 5.49563 48.4952C5.32389 48.1449 5.15216 47.7945 4.63694 47.4442C3.77825 46.9187 1.37391 46.9187 0.858694 46.9187C1.03043 47.269 1.37392 47.9697 1.88914 48.6703C2.40435 49.371 2.91956 50.0717 3.43477 50.2468H3.60652C4.46522 50.5972 5.15216 50.0717 5.49563 49.7213C5.83911 49.8965 6.52607 50.2468 6.86955 50.5972C6.86955 50.5972 7.21303 51.2978 7.38477 51.9985C7.55651 52.3488 7.72825 52.6992 7.89999 53.0495C8.07173 53.3998 8.07171 53.575 8.07171 53.575C8.07171 53.575 8.07172 53.7501 8.24346 53.7501C8.24346 53.9253 8.4152 54.1005 8.58694 54.2756C8.75867 54.626 8.93041 55.1515 8.93041 55.1515C8.58693 55.1515 8.24345 54.9763 8.07171 54.9763C8.07171 54.8011 8.07173 54.4508 7.89999 54.1005C7.72825 53.7501 7.38477 53.3998 6.86955 53.2246C6.35433 53.0495 5.49564 53.0495 4.80869 53.0495C4.12173 53.0495 3.26304 53.2246 3.0913 53.2246C3.26304 53.3998 3.26305 53.575 3.60652 53.9253C3.77826 54.2756 4.12173 54.4508 4.29347 54.8011C4.80868 55.5018 5.49564 56.0273 6.01086 56.2025C7.04129 56.5528 7.72825 55.8521 7.89999 55.5018C8.07173 55.5018 8.4152 55.677 8.58694 55.8521C8.93041 56.0273 9.10217 56.0273 9.27391 56.2025C9.27391 56.2025 9.27389 56.3776 9.44563 56.5528C9.61737 56.728 9.78911 57.0783 9.96085 57.2535C10.3043 57.7789 10.6478 58.3044 10.6478 58.3044C10.6478 58.3044 10.6478 58.3044 10.8195 58.4796C10.8195 58.6548 10.9913 58.6548 11.163 58.8299C11.3348 59.1803 11.5065 59.3554 11.5065 59.3554L12.1935 58.8299Z" fill="#F5EFDB"/>
<path d="M66.2915 60.4072C65.9481 60.7575 65.6046 61.283 65.6046 61.283C65.6046 60.9327 65.4328 60.5823 65.4328 60.4072C65.6046 60.4072 65.7763 60.232 65.9481 60.0568C66.1198 59.8817 66.1198 59.8817 66.2915 59.7065C66.2915 59.5313 66.4633 59.3562 66.4633 59.181C66.4633 59.0058 66.4633 58.8307 66.4633 58.4803C66.2915 57.4293 64.5742 55.8529 64.2307 55.5025C64.2307 55.6777 64.0589 55.8529 64.0589 56.2032C64.0589 56.5535 63.8872 56.9038 63.8872 57.2542C63.8872 57.6045 63.7155 57.9548 63.7155 58.13C63.7155 58.4803 63.7155 58.6555 63.7155 59.0058C63.8872 60.0568 64.7459 60.4072 65.2611 60.4072C65.2611 60.9327 65.2611 61.6333 65.2611 61.9836C65.2611 61.9836 65.0894 62.1588 64.9176 62.5091C64.7459 62.6843 64.4024 63.0346 64.4024 63.0346C64.4024 63.0346 64.2307 63.2098 64.0589 63.385C63.8872 63.5601 63.8872 63.5601 63.7155 63.7353C63.5437 63.9105 63.372 64.0856 63.2002 64.2608C62.8568 64.6111 62.5133 64.9615 62.3415 65.1366C62.1698 65.3118 61.9981 65.4869 61.9981 65.4869C61.9981 65.1366 61.9981 64.7863 61.9981 64.6111C62.1698 64.6111 62.5133 64.436 62.8568 64.2608C63.2002 64.0856 63.372 63.5601 63.372 63.0346C63.372 61.9836 61.9981 60.0568 61.6546 59.7065C61.4828 59.8817 61.3111 60.5823 60.9676 61.1078C60.6241 61.8085 60.4524 62.5091 60.4524 62.8595C60.4524 63.9105 61.3111 64.436 61.6546 64.6111C61.6546 65.1366 61.4828 65.8373 61.4828 66.1876L60.4524 67.0634C60.4524 67.0634 60.2807 67.2386 60.1089 67.2386C59.9372 67.4138 59.7654 67.4138 59.7654 67.4138C59.7654 67.4138 59.422 67.7641 58.9068 67.9393C58.735 68.1144 58.3915 68.2896 58.3915 68.2896C58.2198 68.4648 58.0481 68.4648 58.0481 68.4648C58.0481 68.1144 58.0481 67.7641 58.0481 67.5889C58.3915 67.5889 59.0785 67.4138 59.2502 66.7131C59.2502 66.5379 59.422 66.3628 59.422 66.1876C59.5937 65.1366 58.3915 63.0346 58.2198 62.5091C58.2198 62.6843 58.048 62.8595 57.8763 63.0346C57.7046 63.2098 57.5329 63.5601 57.3611 63.9105C57.0176 64.436 56.6741 65.1366 56.6741 65.4869C56.5024 66.5379 57.1894 67.0634 57.7046 67.4138C57.5328 67.7641 57.3611 68.4648 57.1894 68.9903L56.1589 69.6909C56.1589 69.6909 55.9872 69.8661 55.6437 69.8661C55.3002 70.0412 54.9568 70.2164 54.6133 70.3916C54.2698 70.5667 53.7546 70.7419 53.5828 70.9171C53.2394 71.0922 53.0676 71.0922 53.0676 71.0922C53.0676 70.7419 53.2394 70.3916 53.2394 70.2164C53.4111 70.2164 53.7546 70.2164 54.0981 70.0413C54.4415 69.8661 54.785 69.5157 54.9568 68.9903C55.3002 67.9393 54.4415 65.8373 54.2698 65.1366C54.0981 65.3118 54.0981 65.487 53.9263 65.6621C53.7546 65.8373 53.5828 66.0124 53.2394 66.3628C52.8959 66.8883 52.3807 67.4138 52.2089 67.9393C51.8655 68.9903 52.5524 69.6909 52.8959 70.0413C52.7242 70.3916 52.3807 71.0922 52.2089 71.4426C52.2089 71.4426 51.8655 71.6177 51.6937 71.6177C51.522 71.6177 51.3503 71.7929 51.3503 71.7929C51.1785 71.7929 51.1785 71.7929 51.1785 71.7929L50.3198 72.1432C50.3198 72.1432 50.1481 72.1432 49.9763 72.3184C49.8046 72.3184 49.4611 72.4936 49.2894 72.4936C48.7741 72.6687 48.2589 72.8439 48.2589 72.8439C48.4307 72.4936 48.4307 72.3184 48.6024 71.9681C48.7742 71.9681 48.9459 71.9681 49.2894 71.9681C49.6328 71.9681 49.8046 71.7929 50.1481 71.6177C50.3198 71.4426 50.3198 71.2674 50.4916 71.0922C50.6633 70.5667 50.6633 69.8661 50.6633 68.9903C50.6633 68.2896 50.4915 67.4138 50.3198 67.2386C50.1481 67.4138 49.6329 67.7641 49.1176 68.2896C48.9459 68.4648 48.6024 68.8151 48.4307 68.9903C48.2589 69.1654 48.0872 69.5158 47.9155 69.6909C47.4003 70.7419 47.9155 71.4426 48.2589 71.7929C48.0872 72.1432 47.572 72.6687 47.4002 73.0191C47.4002 73.0191 47.0568 73.0191 46.7133 73.1942H46.5416C44.3089 73.3694 40.7024 73.7197 40.7024 73.7197C40.7024 73.7197 36.5807 73.5446 34.5198 73.3694C34.5198 73.3694 34.5198 73.3694 34.3481 73.3694C34.1763 73.3694 34.0046 73.3694 34.0046 73.3694C33.6611 73.3694 33.3177 73.1942 33.3177 73.1942C32.9742 72.8439 32.6307 72.3184 32.459 71.9681C32.8024 71.6177 33.3177 70.9171 32.8024 69.8661C32.6307 69.6909 32.6307 69.3406 32.2872 69.1654C32.1155 68.9903 31.772 68.6399 31.6003 68.4648C31.0851 67.9393 30.5698 67.5889 30.3981 67.4138C30.3981 67.7641 30.2263 68.4648 30.0546 69.1654C30.0546 69.8661 30.0546 70.7419 30.2264 71.2674C30.3981 71.4426 30.3981 71.6177 30.5698 71.7929C30.7416 71.9681 31.085 72.1432 31.4285 72.1432C31.772 72.1432 31.9437 72.1432 32.1155 72.1432C32.2872 72.3184 32.2872 72.6687 32.459 73.0191C32.459 73.0191 31.9437 72.8439 31.4285 72.6687C31.2568 72.6687 30.9133 72.4936 30.7416 72.4936C30.5698 72.4936 30.3981 72.3184 30.3981 72.3184L29.5394 71.9681C29.5394 71.9681 29.5394 71.9681 29.3677 71.9681C29.3677 71.9681 29.3676 71.9681 29.1959 71.9681C29.0242 71.9681 29.0242 71.7929 28.8524 71.7929C28.509 71.6177 28.3372 71.6177 28.3372 71.6177C28.1655 71.2674 27.822 70.5667 27.6503 70.2164C27.9937 69.8661 28.6807 69.1654 28.3372 68.1144C28.1655 67.5889 27.822 67.0634 27.3068 66.5379C27.1351 66.3628 26.9633 66.0124 26.6198 65.8373C26.4481 65.6621 26.2763 65.4869 26.2763 65.3118C26.1046 65.8373 25.2459 68.1144 25.5894 69.1654C25.7611 69.6909 26.1046 70.0413 26.4481 70.2164C26.7916 70.3916 27.1351 70.3916 27.3068 70.3916C27.3068 70.5667 27.4785 70.9171 27.4785 71.2674C27.4785 71.2674 27.3068 71.0922 26.9633 71.0922C26.6198 70.9171 26.2764 70.7419 25.9329 70.5667C25.5894 70.3916 25.2459 70.2164 24.9024 70.0413C24.559 69.8661 24.3872 69.8661 24.3872 69.8661L23.3568 69.1654C23.1851 68.8151 23.0133 68.1144 22.8416 67.5889C23.185 67.4138 23.872 66.7131 23.872 65.6621C23.872 65.1366 23.5285 64.6111 23.185 64.0856C23.0133 63.7353 22.8416 63.5601 22.6698 63.2098C22.4981 63.0346 22.3263 62.6843 22.3263 62.6843C21.9829 63.2098 20.9524 65.3118 20.9524 66.3628C20.9524 66.5379 20.9524 66.7131 21.1242 66.8883C21.4677 67.5889 21.9829 67.7641 22.3263 67.7641C22.3263 67.9393 22.3263 68.2896 22.3263 68.6399C22.3263 68.6399 22.1546 68.6399 21.9829 68.4648C21.8111 68.2896 21.6394 68.2896 21.4677 68.1144C21.1242 67.7641 20.609 67.4138 20.609 67.4138C20.609 67.4138 20.4372 67.2386 20.2655 67.2386C20.0937 67.0634 19.922 67.0634 19.922 67.0634L18.5481 66.0124C18.3764 65.6621 18.3763 64.9615 18.3763 64.436C18.7198 64.2608 19.5785 63.7353 19.5785 62.6843C19.5785 62.1588 19.4068 61.4581 19.0633 60.9326C18.8916 60.232 18.5481 59.7065 18.3763 59.5313C18.0329 60.0568 16.659 61.8085 16.659 62.8595C16.659 63.385 16.8307 63.7353 17.1742 64.0856C17.5177 64.2608 17.6894 64.436 18.0329 64.436C18.0329 64.6111 18.0329 64.9615 18.0329 65.3118C18.0329 65.3118 17.8611 65.1366 17.6894 64.9615C17.5177 64.7863 17.1742 64.436 16.8307 64.0856C16.659 63.9105 16.4872 63.7353 16.3155 63.5601C16.1437 63.385 15.972 63.2098 15.972 63.2098C15.8003 63.0346 15.6285 62.8595 15.6285 62.8595C15.6285 62.8595 15.4568 62.6843 15.1133 62.334C14.9416 62.1588 14.7698 61.8085 14.7698 61.8085C14.7698 61.283 14.7698 60.7575 14.7698 60.232C15.2851 60.232 16.1437 59.8817 16.3155 58.8307C16.3155 58.6555 16.3155 58.3052 16.3155 57.9548C16.3155 57.6045 16.1438 57.2542 16.1438 57.079C16.1438 56.7287 15.972 56.3784 15.972 56.028C15.972 55.6777 15.8003 55.5025 15.8003 55.3274C15.285 55.6777 13.7394 57.4293 13.5677 58.3052C13.5677 58.4803 13.5677 58.6555 13.5677 59.0058C13.5677 59.181 13.5677 59.3562 13.7394 59.5313C13.7394 59.7065 13.9111 59.7065 14.0829 59.8817C14.2546 60.0568 14.4264 60.232 14.5981 60.232C14.5981 60.4071 14.4264 60.7575 14.4264 61.1078C14.4264 61.1078 14.0829 60.7575 13.7394 60.232C13.3959 59.8817 13.0525 59.3562 13.0525 59.3562L12.3655 59.8817L12.5372 60.232C12.3655 60.232 12.1937 60.232 12.022 60.232C11.8503 60.232 11.8503 60.232 11.6785 60.232C11.6785 60.0568 11.5068 59.7065 11.3351 59.3562C11.1633 59.0058 10.8198 58.6555 10.3046 58.6555C9.27419 58.4803 7.04158 59.181 6.52637 59.3562C6.69811 59.5313 6.86985 59.7065 7.04159 59.8817C7.21333 60.0568 7.55681 60.4072 7.90028 60.7575C8.58724 61.283 9.27418 61.8085 9.7894 61.8085H9.96115C10.9916 61.8085 11.335 61.1078 11.5068 60.7575C12.022 60.9327 12.709 60.9326 13.0525 61.1078C13.0525 61.1078 13.2242 61.283 13.3959 61.4581C13.5677 61.6333 13.7394 61.9836 14.0829 62.334C14.2546 62.6843 14.5981 62.8595 14.7698 63.2098C14.9416 63.385 15.1133 63.5601 15.1133 63.5601C15.1133 63.5601 15.4568 63.9105 15.6285 64.2608C15.8003 64.436 15.972 64.6111 15.972 64.6111C16.1437 64.7863 16.1438 64.7863 16.1438 64.7863C15.8003 64.7863 15.4568 64.9615 15.2851 64.9615C15.2851 64.7863 15.1133 64.436 14.7698 64.0856C14.5981 63.7353 14.0829 63.5601 13.5677 63.5601C12.5372 63.5601 10.4764 64.6111 9.96115 64.7863C10.3046 64.9615 10.8198 65.487 11.6785 65.8373C12.3655 66.1876 13.2242 66.5379 13.7394 66.5379C14.9416 66.5379 15.2851 65.6621 15.2851 65.1366C15.8003 65.1366 16.4872 65.1366 16.8307 65.3118C16.8307 65.3118 17.0024 65.487 17.1742 65.6621C17.3459 65.8373 17.5177 66.0124 17.8611 66.1876C18.0329 66.3628 18.3764 66.5379 18.5481 66.7131C18.7198 66.8883 18.8916 66.8883 18.8916 66.8883C18.8916 66.8883 19.2351 67.0634 19.4068 67.4138C19.5785 67.5889 19.7503 67.5889 19.7503 67.7641C19.922 67.7641 19.922 67.9393 19.922 67.9393L20.0937 68.1144C19.922 68.1144 19.7503 68.2896 19.5785 68.2896C19.4068 68.2896 19.4068 68.2896 19.235 68.4648C19.0633 68.2896 18.8916 67.9393 18.7198 67.7641C18.3764 67.5889 18.0329 67.4138 17.5177 67.4138C16.4872 67.5889 14.5981 68.8151 14.0829 69.1654C14.4263 69.3406 15.1133 69.6909 15.8003 70.0413C16.659 70.3916 17.3459 70.5667 18.0329 70.5667H18.2046C19.2351 70.3916 19.4068 69.5157 19.4068 68.9903C19.922 68.9903 20.609 68.8151 20.9524 68.8151C20.9524 68.8151 21.6394 69.1654 22.3263 69.6909C23.0133 70.0412 23.7003 70.5667 23.7003 70.5667C23.7003 70.5667 23.872 70.5667 23.872 70.7419C24.0438 70.7419 24.2155 70.9171 24.3872 71.0922C24.7307 71.2674 25.2459 71.4426 25.2459 71.4426C24.9024 71.6177 24.7307 71.7929 24.3872 71.7929C24.2155 71.6177 24.0437 71.2674 23.7003 71.0922C23.3568 70.9171 23.0133 70.7419 22.3263 70.9171C21.2959 71.2674 19.7503 72.8439 19.235 73.3694C19.4068 73.3694 19.7503 73.5445 19.922 73.7197C20.2655 73.8949 20.609 73.8949 21.1242 74.0701C21.9829 74.2452 22.8416 74.2452 23.3568 74.0701C24.3872 73.7197 24.559 72.6687 24.559 72.3184C25.0742 72.1432 25.7611 71.9681 26.1046 71.9681C26.1046 71.9681 26.2764 71.9681 26.4481 72.1432C26.6198 72.3184 26.9633 72.3184 27.3068 72.4936C27.822 72.6687 28.509 73.0191 28.509 73.0191C28.509 73.0191 28.5089 73.0191 28.6807 73.0191C28.8524 73.0191 29.0242 73.1942 29.1959 73.1942C29.5394 73.3694 29.8829 73.3694 29.8829 73.3694L30.2264 73.5446C30.0546 73.7197 29.8829 73.7197 29.8829 73.8949C29.7111 73.8949 29.7111 74.0701 29.5394 74.0701C29.3676 73.8949 29.1959 73.7197 28.6807 73.5446C28.3372 73.3694 27.822 73.3694 27.3068 73.5446C26.4481 74.0701 24.9024 75.8217 24.559 76.3472C25.2459 76.5224 27.822 76.8727 28.6807 76.3472C28.6807 76.3472 28.8524 76.3472 28.8524 76.172C29.7111 75.6465 29.5394 74.7707 29.5394 74.2452C29.8829 74.07 30.5698 73.7197 31.085 73.7197C31.085 73.7197 31.2568 73.7197 31.6003 73.8949C31.9437 74.0701 32.2872 74.07 32.6307 74.2452C32.9742 74.4204 33.3177 74.4204 33.6611 74.4204C34.0046 74.4204 34.1764 74.4204 34.1764 74.4204C35.2068 74.5956 36.7524 74.7707 38.1263 74.9459C38.1263 74.9459 38.2981 74.9459 38.4698 74.9459C33.8329 76.5224 32.6307 79.5002 32.6307 79.5002H34.6915C35.2068 77.7485 38.1263 76.3472 40.3589 75.6465C42.4198 76.5224 45.3394 77.9237 46.0263 79.5002H48.0872C48.0872 79.5002 46.885 76.5224 42.2481 74.9459C42.2481 74.9459 42.2481 74.9459 42.4198 74.9459C43.7937 74.7707 46.1981 74.5955 47.7437 74.2452C47.9155 74.2452 48.0872 74.2452 48.2589 74.0701C48.6024 73.8949 48.9459 73.8949 49.2894 73.7197C49.6328 73.7197 49.8046 73.5446 49.8046 73.5446C50.1481 73.7197 50.835 73.8949 51.3503 74.2452C51.3503 74.5955 51.1785 75.6465 52.0372 76.172H52.2089C53.2394 76.6975 55.6437 76.3472 56.3307 76.172C55.9872 75.6465 54.6133 73.7197 53.5828 73.3694C53.0676 73.1942 52.5524 73.1942 52.2089 73.3694C51.8655 73.5446 51.522 73.7197 51.3503 73.8949C51.1785 73.8949 51.1785 73.7197 51.0067 73.7197C50.835 73.5445 50.6633 73.5446 50.6633 73.3694L51.0067 73.1942C51.0067 73.1942 51.3502 73.0191 51.6937 73.0191C51.8655 73.0191 52.0372 72.8439 52.2089 72.8439C52.3807 72.8439 52.3807 72.8439 52.3807 72.8439C52.3807 72.8439 52.8959 72.6687 53.5828 72.3184C53.9263 72.1432 54.0981 72.1432 54.4415 71.9681C54.6133 71.7929 54.785 71.7929 54.785 71.7929C55.3002 71.7929 55.9872 72.1432 56.3307 72.1432C56.3307 72.6687 56.3307 73.5446 57.5328 73.8949C58.0481 74.0701 58.9068 74.0701 59.7654 73.8949C60.1089 73.8949 60.6241 73.7197 60.9676 73.5446C61.3111 73.3694 61.6546 73.3694 61.6546 73.1942C61.1394 72.6687 59.5937 71.0922 58.5633 70.7419C58.0481 70.5667 57.5328 70.7419 57.1894 70.9171C56.8459 71.0922 56.6742 71.4426 56.5024 71.6177C56.3307 71.4426 55.9872 71.4426 55.6437 71.2674C55.6437 71.2674 55.9872 71.0922 56.3307 70.9171C56.5024 70.7419 56.6742 70.7419 56.8459 70.5667C57.0176 70.5667 57.0176 70.3916 57.0176 70.3916C57.0176 70.3916 57.7046 70.0413 58.3915 69.5158C59.0785 69.1654 59.7654 68.6399 59.7654 68.6399C60.2807 68.6399 60.9676 68.6399 61.3111 68.8151C61.3111 69.1654 61.4828 70.0413 62.5133 70.3916H62.685C63.2002 70.5667 64.0589 70.2164 64.9176 70.0413C65.7763 69.6909 66.4633 69.3406 66.635 69.1654C66.1198 68.8151 64.2307 67.4138 63.2002 67.4138C62.685 67.4138 62.1698 67.5889 61.9981 67.7641C61.6546 67.9393 61.4828 68.2896 61.4828 68.4648C61.3111 68.4648 61.3111 68.4648 61.1394 68.2896C60.9676 68.2896 60.7959 68.1144 60.6241 68.1144L60.9676 67.9393C60.9676 67.9393 60.9676 67.9393 61.1394 67.7641C61.3111 67.7641 61.3111 67.5889 61.4828 67.4138C61.8263 67.2386 61.9981 66.8883 61.9981 66.8883C61.9981 66.8883 62.1698 66.7131 62.3415 66.7131C62.5133 66.5379 62.8567 66.3628 63.0285 66.1876C63.2002 66.0124 63.5437 65.8373 63.7155 65.6621C63.8872 65.487 64.0589 65.3118 64.0589 65.3118C64.4024 65.1366 65.2611 65.1366 65.6046 65.1366C65.7763 65.487 66.1198 66.5379 67.1502 66.5379C67.6654 66.5379 68.5241 66.1876 69.2111 65.8373C69.898 65.487 70.585 64.9615 70.9285 64.7863C70.4133 64.436 68.3524 63.385 67.322 63.5601C66.8067 63.5601 66.2915 63.7353 66.1198 64.0856C65.7763 64.436 65.7763 64.7863 65.6046 64.9615C65.4328 64.9615 65.0893 64.9615 64.7459 64.7863C64.7459 64.7863 64.7459 64.7863 64.9176 64.6111C65.0894 64.436 65.2611 64.2608 65.2611 64.2608C65.6046 63.9105 65.9481 63.5601 65.9481 63.5601C65.9481 63.5601 66.1198 63.385 66.2915 63.2098C66.4633 63.0346 66.8067 62.6843 66.9785 62.334C67.1502 61.9836 67.4937 61.8085 67.6655 61.4581C67.8372 61.283 68.0089 61.1078 68.0089 61.1078C68.3524 60.9326 69.0393 60.7575 69.5546 60.7575C69.7263 61.1078 70.2415 61.9836 71.1002 61.8085H71.272C71.7872 61.6333 72.4741 61.283 73.1611 60.7575C73.5046 60.4072 73.848 60.232 74.0198 60.0568C74.1915 59.8817 74.535 59.5313 74.535 59.5313C74.0198 59.3562 71.7872 58.6555 70.7567 58.8307C70.2415 59.0058 69.8981 59.181 69.7263 59.5313C69.5546 59.8817 69.3828 60.232 69.3828 60.4072C69.2111 60.4072 69.2111 60.4072 69.0393 60.4072C68.8676 60.4072 68.6959 60.4072 68.5241 60.4072L68.6959 60.0568L68.0089 59.5313C66.9785 59.5313 66.635 60.0568 66.2915 60.4072Z" fill="#F5EFDB"/>
<path d="M73.5043 47.4443C73.6761 46.7436 73.8478 46.2181 73.8478 46.2181C74.1913 45.8678 74.7065 45.5175 75.05 45.1671C75.3935 45.5175 76.2522 46.043 77.1109 45.3423C77.6261 44.992 77.9696 44.2913 78.313 43.4155C78.6565 42.7148 78.8282 41.839 79 41.4887C78.313 41.6638 76.0804 42.0142 75.3935 42.5397C74.5348 43.2403 74.7065 44.2913 74.8783 44.6416C74.7065 44.8168 74.363 44.992 74.0196 44.992C74.0196 44.992 74.0195 44.6416 74.1913 44.1161C74.1913 43.5906 74.363 43.2403 74.363 43.2403C74.363 43.2403 74.363 43.0651 74.363 42.7148C74.363 42.3645 74.363 42.0142 74.5348 41.6638C74.5348 41.3135 74.5348 40.9632 74.5348 40.6128C74.5348 40.2625 74.5348 40.0873 74.5348 40.0873C74.7065 39.737 75.2217 39.2115 75.5652 38.8612C75.9087 39.0363 76.7674 39.3867 77.4543 38.686C77.4543 38.686 77.6261 38.686 77.6261 38.5109C77.9695 38.1605 78.313 37.2847 78.4848 36.4089C78.6565 35.533 78.8283 34.8324 78.8283 34.482C78.313 34.6572 76.0804 35.3579 75.3935 36.2337C75.05 36.584 74.8783 37.1095 74.8783 37.4599C74.8783 37.8102 75.05 38.1605 75.05 38.3357C75.05 38.3357 74.8782 38.5109 74.7065 38.5109C74.5348 38.686 74.363 38.686 74.363 38.8612V38.5109V37.1095C74.363 37.1095 74.363 36.9344 74.363 36.7592C74.363 36.584 74.363 36.2337 74.363 35.8834C74.363 35.533 74.363 35.1827 74.363 35.0075C74.363 34.8324 74.363 34.6572 74.363 34.6572C74.5348 34.3069 74.8783 33.6062 75.2217 33.2559C75.5652 33.4311 76.5956 33.6062 77.2826 32.7304C77.6261 32.3801 77.7978 31.5042 77.9696 30.6284C78.1413 29.7526 78.1413 28.8767 77.9696 28.5264C77.4543 28.8767 75.3935 29.9277 74.7065 30.8036C74.363 31.3291 74.363 31.6794 74.363 32.2049C74.363 32.5552 74.5348 32.9056 74.7065 33.0807C74.5348 33.2559 74.363 33.431 74.0196 33.7814C74.0196 33.7814 74.0196 33.2559 73.8478 32.9056C73.8478 32.5552 73.6761 32.0297 73.6761 32.0297C73.6761 32.0297 73.6761 31.8546 73.6761 31.5042C73.6761 31.1539 73.5043 30.8036 73.5043 30.4532C73.5043 30.1029 73.3326 29.7526 73.3326 29.4022C73.3326 29.0519 73.1609 28.8768 73.1609 28.8768C73.3326 28.5264 73.5043 27.8258 73.8478 27.3003C74.1913 27.3003 75.2217 27.4754 75.737 26.5996V26.4244C76.2522 25.5486 75.9087 22.9211 75.737 22.2205C75.2217 22.5708 73.3326 23.9721 72.9891 25.0231C72.8174 25.5486 72.8174 26.0741 72.9891 26.4244C73.1609 26.7748 73.3326 27.1251 73.5043 27.3003C73.5043 27.4754 73.3326 27.4754 73.3326 27.6506C73.1609 27.8258 73.1609 28.0009 72.9891 28.0009L72.8174 27.6506C72.8174 27.6506 72.6456 27.3003 72.6456 26.9499C72.6456 26.7748 72.4739 26.5996 72.4739 26.4244C72.4739 26.2493 72.4739 26.2493 72.4739 26.2493C72.4739 26.2493 72.3022 25.7238 71.9587 25.0231C71.787 24.6728 71.7869 24.4976 71.6152 24.1473C71.4435 23.9721 71.4435 23.797 71.4435 23.797C71.4435 23.2715 71.787 22.746 71.787 22.2205C72.3022 22.2205 73.1609 22.2205 73.5043 20.9943C73.6761 20.4688 73.6761 19.593 73.5043 18.7172C73.5043 18.3668 73.3326 17.8413 73.1609 17.491C72.9891 17.1407 72.9891 16.7903 72.8174 16.7903C72.3022 17.3158 70.7565 18.8923 70.413 19.9433C70.2413 20.4688 70.413 20.9943 70.5848 21.3446C70.7565 21.695 71.1 21.8701 71.2717 22.0453C71.1 22.2205 71.1 22.5708 70.9283 22.9211C70.9283 22.9211 70.7565 22.5708 70.5848 22.0453C70.413 21.8701 70.4131 21.695 70.2413 21.5198C70.2413 21.3446 70.0696 21.3446 70.0696 21.3446C70.0696 21.3446 69.7261 20.644 69.3826 19.9433C69.0391 19.2426 68.5239 18.542 68.5239 18.542C68.5239 18.0165 68.5239 17.3158 68.6957 16.9655C69.0391 16.9655 69.8978 16.7903 70.2413 15.7394V15.5642C70.4131 15.0387 70.0696 14.1629 69.8978 13.287C69.5543 12.4112 69.2109 11.7105 69.0391 11.5354C68.6956 12.0609 67.3218 13.9877 67.15 15.0387C67.15 15.5642 67.3217 16.0897 67.4935 16.2648C67.6652 16.6152 68.0087 16.7903 68.1804 16.7903C68.1804 16.9655 68.1804 16.9655 68.0087 17.1407C68.0087 17.3158 67.837 17.491 67.837 17.6662L67.6652 17.3158C67.6652 17.3158 67.6652 17.3158 67.4935 17.1407C67.4935 16.9655 67.3218 16.9655 67.15 16.7903C66.9783 16.44 66.6348 16.2648 66.6348 16.2648C66.6348 16.2648 66.463 16.0897 66.463 15.9145C66.2913 15.7393 66.1196 15.389 65.9478 15.2138C65.7761 15.0387 65.6044 14.6883 65.4326 14.5132C65.2609 14.338 65.2609 14.1629 65.2609 14.1629C65.0891 13.8125 65.0892 12.9367 65.0892 12.5864C65.4326 12.4112 66.463 12.0609 66.463 11.0099C66.463 10.4844 66.1196 9.60856 65.7761 8.9079C65.4326 8.20723 64.9174 7.50657 64.7457 7.15624C64.4022 7.68174 63.3717 9.78372 63.5435 10.8347C63.5435 11.3602 63.7152 11.8857 64.0587 12.0609C64.4022 12.4112 64.7457 12.4112 64.9174 12.5864C64.9174 12.7615 64.9174 13.1119 64.7457 13.4622C64.7457 13.4622 64.7457 13.4622 64.5739 13.287C64.4022 13.1119 64.4022 12.9367 64.2305 12.9367C63.887 12.5864 63.5435 12.4112 63.5435 12.4112C63.5435 12.4112 63.3718 12.236 63.2 12.0609C63.0283 11.8857 62.6848 11.5354 62.3413 11.3602C61.9978 11.185 61.8261 10.8347 61.4826 10.6595C61.3109 10.4844 61.1392 10.3092 61.1392 10.3092C60.9674 9.95888 60.7957 9.25823 60.7957 8.73273C61.1392 8.55757 61.9978 8.03207 61.8261 7.15624V6.98108C61.6544 6.45558 61.3109 5.75491 60.7957 5.05425C60.4522 4.70392 60.2805 4.35359 59.937 4.17842C59.7653 4.00326 59.4218 3.65293 59.4218 3.65293C59.25 4.17843 58.5631 6.45557 58.7348 7.50657C58.9065 8.03206 59.0783 8.38239 59.4218 8.55756C59.7652 8.73272 60.1087 8.9079 60.2805 8.9079C60.2805 9.08306 60.2805 9.08306 60.2805 9.25822C60.2805 9.43339 60.2805 9.60856 60.2805 9.78372L60.1087 9.60856C60.1087 9.60856 59.7652 9.43339 59.5935 9.25822C59.4218 9.08306 59.25 9.08306 59.25 8.9079C59.0783 8.9079 59.0783 8.73273 59.0783 8.73273C59.0783 8.73273 58.5631 8.3824 58.0479 8.03207C57.7044 7.8569 57.5326 7.68173 57.3609 7.50657C57.1892 7.3314 57.0174 7.3314 57.0174 7.3314C56.8457 7.15624 56.8457 6.80591 56.6739 6.63074C56.5022 6.28041 56.5022 6.10524 56.3305 5.93008C56.6739 5.75491 57.5326 5.05425 57.1892 4.00326C57.0174 3.47776 56.5022 2.7771 55.8152 2.2516C55.4718 1.90127 55.1283 1.72611 54.9565 1.55094C54.6131 1.37577 54.4413 1.20062 54.2696 1.02545C54.2696 1.37578 54.0979 2.07644 54.0979 2.77711C54.0979 3.47777 54.0979 4.35359 54.2696 4.87909C54.4413 5.40458 54.7848 5.75491 55.1283 5.93008C55.4718 6.10524 55.8153 6.10525 55.987 6.10525C55.987 6.28042 56.1587 6.63075 56.1587 6.98108C56.1587 6.98108 54.6131 6.45558 54.0979 6.28041C53.9261 6.10525 53.2392 5.93008 52.3805 5.57975C52.3805 5.22942 52.5522 4.17843 51.3501 3.65293C50.4914 3.3026 48.087 3.65293 47.5718 3.65293C47.9153 4.17843 49.2892 6.10525 50.1479 6.45558C51.1783 6.80591 51.8653 6.28041 52.037 5.93008C53.5826 6.8059 55.3 7.68174 55.4718 7.85691C55.8152 8.03207 56.1587 8.20723 56.5022 8.38239C56.8457 8.55756 57.0174 8.73273 57.0174 8.73273C56.6739 8.9079 56.5022 8.90789 56.1587 9.08306C55.987 8.90789 55.8152 8.55756 55.4718 8.38239C55.1283 8.20723 54.7848 8.20723 54.2696 8.38239C53.4109 8.73273 52.037 10.6595 51.6935 11.185C51.8653 11.185 52.037 11.185 52.3805 11.185C52.7239 11.185 52.8957 11.185 53.2392 11.3602C53.9261 11.3602 54.6131 11.3602 55.1283 11.185C56.1587 10.8347 56.3305 9.95888 56.3305 9.43338C56.8457 9.25822 57.3609 9.25822 57.8761 9.25822C57.8761 9.25822 58.2196 9.43339 58.3913 9.60856C58.5631 9.60856 58.5631 9.78372 58.7348 9.78372C58.9065 9.78372 58.9065 9.95889 58.9065 9.95889L59.5935 10.4844C59.5935 10.4844 59.937 10.8347 60.4522 11.185C60.7957 11.5354 61.3109 11.8857 61.3109 11.8857C60.9674 11.8857 60.6239 12.0609 60.4522 12.0609C60.4522 11.8857 60.2805 11.7105 60.1087 11.5354C59.937 11.3602 59.937 11.3602 59.7652 11.185C59.5935 11.185 59.4218 11.0099 59.25 11.0099C59.0783 11.0099 58.9066 11.0099 58.5631 11.0099C57.5326 11.185 55.987 12.9367 55.6435 13.287C55.8153 13.287 55.987 13.4622 56.3305 13.4622C56.6739 13.4622 57.0174 13.6374 57.3609 13.6374C57.7044 13.6374 58.0479 13.8125 58.2196 13.8125C58.5631 13.8125 58.7348 13.8125 59.0783 13.8125C60.1087 13.6374 60.4522 12.7615 60.4522 12.236C60.9674 12.236 61.6544 12.236 61.9978 12.236C61.9978 12.236 62.1696 12.4112 62.5131 12.5864C62.6848 12.7615 63.0283 13.1119 63.0283 13.1119C63.0283 13.1119 63.2 13.287 63.3718 13.4622C63.5435 13.6374 63.5435 13.6374 63.7152 13.8125C63.887 13.9877 64.0587 14.1629 64.2305 14.338C64.5739 14.6884 64.7457 15.0387 65.0892 15.2138C65.2609 15.389 65.4326 15.5642 65.4326 15.5642C65.0891 15.5642 64.7457 15.5642 64.5739 15.5642C64.5739 15.389 64.4022 15.0387 64.2305 14.6883C64.0587 14.338 63.5435 14.1629 63.0283 14.1629C61.9978 14.1629 60.1087 15.5642 59.7652 15.9145C59.937 16.0897 60.6239 16.2648 61.1392 16.6152C61.8261 16.9655 62.5131 17.1407 62.8565 17.1407C63.887 17.1407 64.4022 16.2648 64.5739 15.9145C65.0891 15.9145 65.7761 16.0897 66.1196 16.0897L66.9783 17.1407C66.9783 17.1407 67.15 17.3158 67.15 17.491C67.3218 17.6662 67.3217 17.8413 67.3217 17.8413C67.3217 17.8413 67.6652 18.1917 67.837 18.7172C68.0087 18.8923 68.1804 19.2427 68.1804 19.2427C68.3522 19.4178 68.3522 19.593 68.3522 19.593C68.0087 19.593 67.6652 19.593 67.4935 19.593C67.4935 19.2427 67.3217 18.542 66.6348 18.3668C66.4631 18.3668 66.2913 18.1917 66.1196 18.1917C65.0891 18.0165 63.0283 19.2427 62.5131 19.4178C62.6848 19.4178 62.8565 19.593 63.0283 19.7681C63.2 19.9433 63.5435 20.1185 63.887 20.2936C64.4022 20.644 65.0891 20.9943 65.4326 20.9943C66.4631 21.1695 66.9783 20.4688 67.3217 19.9433C67.6652 20.1185 68.3522 20.2936 68.8674 20.4688L69.5543 21.5198C69.5543 21.5198 69.7261 21.695 69.7261 22.0453C69.8978 22.3956 70.0696 22.746 70.2413 23.0963C70.4131 23.4466 70.5848 23.9721 70.7565 24.1473C70.9282 24.4976 70.9283 24.6728 70.9283 24.6728C70.5848 24.6728 70.2413 24.4976 70.0696 24.4976C70.0696 24.3225 70.0696 23.9721 69.8978 23.6218C69.7261 23.2715 69.3826 22.9211 68.8674 22.746C67.837 22.3956 65.7761 23.2715 65.0892 23.4466C65.4326 23.7969 66.8065 25.1983 67.837 25.5486C68.8674 25.8989 69.5543 25.1983 69.8978 24.8479C70.2413 25.0231 70.9283 25.3734 71.2717 25.5486C71.2717 25.5486 71.4435 25.8989 71.4435 26.0741C71.4435 26.2493 71.6152 26.4244 71.6152 26.4244C71.6152 26.5996 71.6152 26.5996 71.6152 26.5996L71.9587 27.4754C71.9587 27.4754 71.9587 27.6506 72.1304 27.8258C72.1304 28.0009 72.3022 28.3513 72.3022 28.5264C72.4739 29.0519 72.6456 29.5774 72.6456 29.5774C72.3022 29.4022 72.1304 29.4022 71.787 29.2271C71.787 29.0519 71.787 28.8767 71.787 28.5264C71.787 28.1761 71.6152 28.0009 71.4435 27.6506C71.2717 27.4754 71.1 27.4754 70.9283 27.3003C70.413 27.1251 69.7261 27.1251 68.8674 27.1251C68.1804 27.1251 67.3218 27.3003 67.15 27.4754C67.3218 27.6506 67.6652 28.1761 68.1804 28.7016C68.3522 28.8767 68.6957 29.2271 68.8674 29.4022C69.0391 29.5774 69.3826 29.7526 69.5543 29.9277C70.5848 30.4532 71.2717 29.9277 71.6152 29.5774C71.9587 29.7526 72.4739 30.2781 72.8174 30.4532C72.8174 30.4532 72.8174 30.8036 72.9891 31.1539C72.9891 31.3291 72.9891 31.5042 72.9891 31.5042C72.9891 31.6794 72.9891 31.6794 72.9891 31.6794C72.9891 31.6794 72.9891 31.8546 73.1609 32.2049C73.1609 32.5552 73.3326 32.9056 73.3326 33.4311C73.3326 33.9566 73.5043 34.3069 73.5043 34.6572C73.5043 35.0075 73.5043 35.1827 73.5043 35.1827C73.1609 35.0075 72.9891 34.8324 72.8174 34.6572C72.8174 34.482 72.9891 34.1317 72.9891 33.7814C72.9891 33.431 72.8174 33.0807 72.3022 32.7304C71.4435 32.2049 69.2109 32.2049 68.5239 32.2049C68.6957 32.3801 68.8674 33.0807 69.2109 33.6062C69.5543 34.1317 69.8978 34.8324 70.413 35.0075C71.2717 35.533 72.1304 35.1827 72.4739 35.0075C72.8174 35.3579 73.3326 35.7082 73.5043 36.0585C73.5043 36.0585 73.5043 36.4089 73.5043 36.7592C73.5043 37.1095 73.5043 37.4599 73.5043 37.4599V38.3357C73.5043 38.3357 73.5043 38.8612 73.5043 39.3867C73.5043 39.5618 73.5043 39.9122 73.5043 40.0873C73.5043 40.2625 73.5043 40.4377 73.5043 40.4377C73.3326 40.2625 72.9891 40.0873 72.8174 39.9122C72.9891 39.5618 73.1609 39.0363 72.9891 38.3357C72.8174 38.1605 72.8174 37.9854 72.6456 37.8102C71.9587 37.1095 69.5543 36.7592 69.0391 36.7592C69.0391 37.1095 69.3826 37.635 69.5543 38.3357C69.7261 38.8612 70.0696 39.5618 70.413 39.9122C71.1 40.6128 72.1304 40.4377 72.4739 40.2625C72.8174 40.6128 73.1609 41.1383 73.3326 41.4887C73.3326 41.4887 73.3326 41.4887 73.3326 41.6638C73.3326 41.839 73.3326 42.0142 73.3326 42.1893C73.3326 42.5397 73.3326 42.89 73.3326 42.89C73.3326 42.89 73.3326 43.0651 73.3326 43.4155C73.3326 43.7658 73.1609 44.1161 73.1609 44.6416C73.1609 44.992 72.9891 45.5175 72.9891 45.8678C72.9891 46.2181 72.8174 46.3933 72.8174 46.3933C72.6457 46.2181 72.4739 45.8678 72.3022 45.6926C72.6457 45.3423 72.9891 44.4665 72.3022 43.5906C71.6152 42.7148 69.5544 42.0142 68.8674 42.0142C68.8674 42.1893 69.0391 42.89 69.2109 43.5906C69.3826 44.2913 69.5543 44.992 69.8978 45.3423C70.5848 46.2181 71.4435 46.043 71.9587 46.043C72.1304 46.3933 72.4739 47.094 72.6456 47.4443L72.3022 48.6704C72.3022 48.6704 72.3022 48.8456 72.1304 49.0208C72.1304 49.1959 71.9587 49.3711 71.9587 49.3711C71.9587 49.3711 71.7869 49.8966 71.6152 50.4221C71.6152 50.5973 71.4435 50.9476 71.4435 51.1228C71.4435 51.2979 71.2717 51.4731 71.2717 51.4731C71.1 51.2979 70.9282 50.9476 70.7565 50.7724C71.1 50.5973 71.4435 50.0718 71.2717 49.3711C71.2717 49.1959 71.1 49.0208 71.1 48.8456C70.5848 47.9698 68.5239 46.9188 68.0087 46.7436C68.0087 46.9188 68.0087 47.094 68.0087 47.4443C68.0087 47.7946 68.0087 48.1449 68.0087 48.4953C68.0087 49.1959 68.1804 49.8966 68.3522 50.2469C68.8674 51.1228 69.7261 51.2979 70.2413 51.1228C70.4131 51.4731 70.7565 52.1738 70.7565 52.6993L70.2413 53.9254C70.2413 53.9254 70.2413 53.9254 70.2413 54.1006C70.2413 54.1006 70.0696 54.2757 70.0696 54.4509C69.8978 54.8012 69.7261 55.1516 69.5543 55.5019C69.3826 55.8522 69.2109 56.2026 69.0391 56.5529C68.8674 56.9032 68.6957 57.0784 68.6957 57.0784C68.5239 56.7281 68.5239 56.5529 68.3522 56.2026C68.5239 56.0274 68.8674 55.8522 69.0391 55.5019C69.2109 55.1516 69.2109 54.8012 69.0391 54.2757C68.6956 53.3999 66.8065 51.9986 66.2913 51.6483C66.2913 51.8234 66.2913 51.9986 66.2913 52.3489C66.2913 52.6992 66.2913 52.8744 66.1196 53.2247C66.1196 53.9254 66.1196 54.6261 66.2913 55.1516C66.6348 56.2026 67.4935 56.3777 68.0087 56.3777C68.1804 56.9032 68.1804 57.4287 68.1804 57.9542C68.1804 57.9542 68.0087 58.3045 67.837 58.4797C67.6652 58.6549 67.6652 58.83 67.6652 58.83C67.6652 59.0052 67.4935 59.0052 67.4935 59.0052L66.9783 59.7059L67.6652 60.2314C67.6652 60.2314 67.837 59.881 68.0087 59.7059C68.1804 59.5307 68.1804 59.3555 68.3522 59.3555C68.3522 59.1804 68.5239 59.1804 68.5239 59.1804C68.5239 59.1804 68.8674 58.6549 69.2109 58.1294C69.3826 57.779 69.5544 57.6039 69.7261 57.4287C69.8978 57.2535 69.8978 57.0784 69.8978 57.0784C70.0696 56.9032 70.413 56.9032 70.5848 56.7281C70.9283 56.5529 71.1 56.5529 71.2717 56.3777C71.4435 56.7281 72.1304 57.6039 73.1609 57.0784C73.6761 56.9032 74.363 56.3777 74.8783 55.6771C75.2217 55.3267 75.3935 54.9764 75.5652 54.8012C75.7369 54.4509 75.9087 54.2757 76.0804 54.1006C75.7369 54.1006 75.05 53.9254 74.363 53.9254C73.6761 53.9254 72.8174 53.9254 72.3022 54.1006C71.787 54.2757 71.4435 54.6261 71.2717 54.9764C71.1 55.3267 71.1 55.6771 71.1 55.8522C70.9283 55.8522 70.5848 56.0274 70.2413 56.0274C70.2413 56.0274 70.413 55.6771 70.5848 55.3267C70.7565 55.1516 70.7565 54.9764 70.9283 54.8012C70.9283 54.6261 71.1 54.6261 71.1 54.6261C71.1 54.6261 71.1 54.4509 71.2717 54.1006C71.4435 53.7502 71.6152 53.3999 71.787 53.0496C72.1304 52.3489 72.3022 51.6483 72.3022 51.6483C72.6457 51.2979 73.1609 50.9476 73.6761 50.7724C74.0196 51.1228 74.5348 51.6483 75.5652 51.2979H75.737C76.2522 51.1228 76.7674 50.4221 77.2826 49.7214C77.7978 49.0208 78.1413 48.3201 78.313 47.9698C77.6261 47.9698 75.3935 47.9698 74.5348 48.4953C74.0196 48.8456 73.8478 49.1959 73.6761 49.5463C73.5044 49.8966 73.6761 50.2469 73.6761 50.4221C73.5044 50.4221 73.5043 50.5973 73.3326 50.5973C73.1609 50.5973 72.9891 50.7724 72.8174 50.7724L72.9891 50.4221C72.9891 50.4221 72.9891 50.4221 72.9891 50.2469C72.9891 50.0718 73.1609 49.8966 73.1609 49.7214C73.3326 49.3711 73.3326 49.0208 73.3326 49.0208C73.3326 49.0208 73.3326 48.8456 73.5043 48.6704C73.3326 47.9698 73.3326 47.7946 73.5043 47.4443Z" fill="#F5EFDB"/>
</svg>
