<?xml version="1.0" encoding="UTF-8" standalone="no"?> <svg xmlns="http://www.w3.org/2000/svg" xmlns:xlink="http://www.w3.org/1999/xlink" viewBox="0 0 64 64"><defs><style>.cls-1{fill:url(#linear-gradient);}</style><linearGradient id="linear-gradient" x1="2.75" y1="32" x2="61.25" y2="32" gradientUnits="userSpaceOnUse"><stop offset="0" stop-color=" #FEDB37"/><stop offset="0.58" stop-color="#9f7928"/><stop offset="1" stop-color="#8A6E2F"/></linearGradient></defs><g id="Layer_41" data-name="Layer 41"><path class="cls-1" d="M32,2.75A29.25,29.25,0,1,0,61.25,32,29.28,29.28,0,0,0,32,2.75Zm0,2.5A26.73,26.73,0,0,1,52.93,48.63,22.76,22.76,0,0,0,37.81,35.69a10.59,10.59,0,1,0-11.62,0A22.76,22.76,0,0,0,11.07,48.63,26.73,26.73,0,0,1,32,5.25Zm0,29.68a8.09,8.09,0,1,1,8.09-8.09A8.1,8.1,0,0,1,32,34.93Zm0,23.82a26.65,26.65,0,0,1-19.07-8,20.32,20.32,0,0,1,38.14,0A26.65,26.65,0,0,1,32,58.75Z"/></g></svg>